<mxfile host="app.diagrams.net" modified="2021-02-03T13:49:57.637Z" agent="5.0 (X11; Linux x86_64) AppleWebKit/537.36 (KHTML, like Gecko) Chrome/88.0.4324.96 Safari/537.36" etag="MRTo5mkBAzp4V7UdCxxo" version="14.2.9" type="github">
  <diagram id="R2lEEEUBdFMjLlhIrx00" name="Page-1">
    <mxGraphModel dx="1320" dy="1591" grid="1" gridSize="10" guides="1" tooltips="1" connect="1" arrows="1" fold="1" page="1" pageScale="1" pageWidth="850" pageHeight="1100" math="0" shadow="0" extFonts="Permanent Marker^https://fonts.googleapis.com/css?family=Permanent+Marker">
      <root>
        <mxCell id="0" />
        <mxCell id="1" parent="0" />
        <mxCell id="ZgUqLeBK0NsFuqqE2vrq-1" value="User" style="swimlane;childLayout=stackLayout;horizontal=1;startSize=30;horizontalStack=0;rounded=1;fontSize=14;fontStyle=0;strokeWidth=2;resizeParent=0;resizeLast=1;shadow=0;dashed=0;align=center;direction=east;" vertex="1" parent="1">
          <mxGeometry x="310" y="-270" width="160" height="100" as="geometry" />
        </mxCell>
        <mxCell id="ZgUqLeBK0NsFuqqE2vrq-2" value="+userid&#xa;+name&#xa;+address&#xa;+phone" style="align=left;strokeColor=none;fillColor=none;spacingLeft=4;fontSize=12;verticalAlign=top;resizable=0;rotatable=0;part=1;" vertex="1" parent="ZgUqLeBK0NsFuqqE2vrq-1">
          <mxGeometry y="30" width="160" height="70" as="geometry" />
        </mxCell>
        <mxCell id="ZgUqLeBK0NsFuqqE2vrq-3" value="Driver" style="swimlane;childLayout=stackLayout;horizontal=1;startSize=30;horizontalStack=0;rounded=1;fontSize=14;fontStyle=0;strokeWidth=2;resizeParent=0;resizeLast=1;shadow=0;dashed=0;align=center;" vertex="1" parent="1">
          <mxGeometry x="500" y="-110" width="160" height="170" as="geometry" />
        </mxCell>
        <mxCell id="ZgUqLeBK0NsFuqqE2vrq-4" value="+DriverId&#xa;+CarId&#xa;+DriverRating&#xa;+Status&#xa;+Create_TIMESTAMP&#xa;+MODIFY_TIMESTAMP&#xa;" style="align=left;strokeColor=none;fillColor=none;spacingLeft=4;fontSize=12;verticalAlign=top;resizable=0;rotatable=0;part=1;" vertex="1" parent="ZgUqLeBK0NsFuqqE2vrq-3">
          <mxGeometry y="30" width="160" height="140" as="geometry" />
        </mxCell>
        <mxCell id="ZgUqLeBK0NsFuqqE2vrq-32" style="edgeStyle=orthogonalEdgeStyle;rounded=0;orthogonalLoop=1;jettySize=auto;html=1;entryX=0.013;entryY=0.4;entryDx=0;entryDy=0;entryPerimeter=0;" edge="1" parent="1" source="ZgUqLeBK0NsFuqqE2vrq-5" target="ZgUqLeBK0NsFuqqE2vrq-15">
          <mxGeometry relative="1" as="geometry">
            <mxPoint x="50" y="646" as="targetPoint" />
            <Array as="points">
              <mxPoint x="30" y="-25" />
              <mxPoint x="30" y="326" />
            </Array>
          </mxGeometry>
        </mxCell>
        <mxCell id="ZgUqLeBK0NsFuqqE2vrq-5" value="Passenger" style="swimlane;childLayout=stackLayout;horizontal=1;startSize=30;horizontalStack=0;rounded=1;fontSize=14;fontStyle=0;strokeWidth=2;resizeParent=0;resizeLast=1;shadow=0;dashed=0;align=center;" vertex="1" parent="1">
          <mxGeometry x="60" y="-100" width="160" height="150" as="geometry" />
        </mxCell>
        <mxCell id="ZgUqLeBK0NsFuqqE2vrq-6" value="+userid&#xa;+passengerRating&#xa;+status&#xa;+create_time_stamp&#xa;+modify_timestamp&#xa;+Home_Location_ID&#xa;+Work_Location_Id" style="align=left;strokeColor=none;fillColor=none;spacingLeft=4;fontSize=12;verticalAlign=top;resizable=0;rotatable=0;part=1;" vertex="1" parent="ZgUqLeBK0NsFuqqE2vrq-5">
          <mxGeometry y="30" width="160" height="120" as="geometry" />
        </mxCell>
        <mxCell id="ZgUqLeBK0NsFuqqE2vrq-28" style="edgeStyle=orthogonalEdgeStyle;rounded=0;orthogonalLoop=1;jettySize=auto;html=1;entryX=0.994;entryY=0.393;entryDx=0;entryDy=0;entryPerimeter=0;" edge="1" parent="1" source="ZgUqLeBK0NsFuqqE2vrq-12" target="ZgUqLeBK0NsFuqqE2vrq-4">
          <mxGeometry relative="1" as="geometry" />
        </mxCell>
        <mxCell id="ZgUqLeBK0NsFuqqE2vrq-12" value="Vehicle" style="swimlane;childLayout=stackLayout;horizontal=1;startSize=30;horizontalStack=0;rounded=1;fontSize=14;fontStyle=0;strokeWidth=2;resizeParent=0;resizeLast=1;shadow=0;dashed=0;align=center;" vertex="1" parent="1">
          <mxGeometry x="700" y="-70" width="160" height="120" as="geometry" />
        </mxCell>
        <mxCell id="ZgUqLeBK0NsFuqqE2vrq-13" value="+VehicleId&#xa;+VehicleName&#xa;+Vehicle_type&#xa;+Registration&#xa;" style="align=left;strokeColor=none;fillColor=none;spacingLeft=4;fontSize=12;verticalAlign=top;resizable=0;rotatable=0;part=1;" vertex="1" parent="ZgUqLeBK0NsFuqqE2vrq-12">
          <mxGeometry y="30" width="160" height="90" as="geometry" />
        </mxCell>
        <mxCell id="ZgUqLeBK0NsFuqqE2vrq-14" value="Location" style="swimlane;childLayout=stackLayout;horizontal=1;startSize=30;horizontalStack=0;rounded=1;fontSize=14;fontStyle=0;strokeWidth=2;resizeParent=0;resizeLast=1;shadow=0;dashed=0;align=center;" vertex="1" parent="1">
          <mxGeometry x="70" y="260" width="160" height="120" as="geometry" />
        </mxCell>
        <mxCell id="ZgUqLeBK0NsFuqqE2vrq-15" value="+LocationId&#xa;+Lattitude&#xa;+Longitude" style="align=left;strokeColor=none;fillColor=none;spacingLeft=4;fontSize=12;verticalAlign=top;resizable=0;rotatable=0;part=1;" vertex="1" parent="ZgUqLeBK0NsFuqqE2vrq-14">
          <mxGeometry y="30" width="160" height="90" as="geometry" />
        </mxCell>
        <mxCell id="ZgUqLeBK0NsFuqqE2vrq-30" style="edgeStyle=orthogonalEdgeStyle;rounded=0;orthogonalLoop=1;jettySize=auto;html=1;" edge="1" parent="1" source="ZgUqLeBK0NsFuqqE2vrq-16">
          <mxGeometry relative="1" as="geometry">
            <mxPoint x="110" y="60" as="targetPoint" />
          </mxGeometry>
        </mxCell>
        <mxCell id="ZgUqLeBK0NsFuqqE2vrq-31" style="edgeStyle=orthogonalEdgeStyle;rounded=0;orthogonalLoop=1;jettySize=auto;html=1;entryX=0.625;entryY=1.071;entryDx=0;entryDy=0;entryPerimeter=0;" edge="1" parent="1" source="ZgUqLeBK0NsFuqqE2vrq-16" target="ZgUqLeBK0NsFuqqE2vrq-4">
          <mxGeometry relative="1" as="geometry" />
        </mxCell>
        <mxCell id="ZgUqLeBK0NsFuqqE2vrq-16" value="Booking" style="swimlane;childLayout=stackLayout;horizontal=1;startSize=30;horizontalStack=0;rounded=1;fontSize=14;fontStyle=0;strokeWidth=2;resizeParent=0;resizeLast=1;shadow=0;dashed=0;align=center;" vertex="1" parent="1">
          <mxGeometry x="280" y="70" width="160" height="150" as="geometry" />
        </mxCell>
        <mxCell id="ZgUqLeBK0NsFuqqE2vrq-17" value="+Bookingid&#xa;+PASSENGERID&#xa;+DRIVERID&#xa;+ORIGIN&#xa;+DESTINATION" style="align=left;strokeColor=none;fillColor=none;spacingLeft=4;fontSize=12;verticalAlign=top;resizable=0;rotatable=0;part=1;" vertex="1" parent="ZgUqLeBK0NsFuqqE2vrq-16">
          <mxGeometry y="30" width="160" height="120" as="geometry" />
        </mxCell>
        <mxCell id="ZgUqLeBK0NsFuqqE2vrq-23" value="LocationDetail" style="swimlane;childLayout=stackLayout;horizontal=1;startSize=30;horizontalStack=0;rounded=1;fontSize=14;fontStyle=0;strokeWidth=2;resizeParent=0;resizeLast=1;shadow=0;dashed=0;align=center;" vertex="1" parent="1">
          <mxGeometry x="700" y="180" width="160" height="120" as="geometry" />
        </mxCell>
        <mxCell id="ZgUqLeBK0NsFuqqE2vrq-24" value="+BookingId&#xa;+LocationId&#xa;+Create_Timestamp&#xa;+user_type" style="align=left;strokeColor=none;fillColor=none;spacingLeft=4;fontSize=12;verticalAlign=top;resizable=0;rotatable=0;part=1;" vertex="1" parent="ZgUqLeBK0NsFuqqE2vrq-23">
          <mxGeometry y="30" width="160" height="90" as="geometry" />
        </mxCell>
        <mxCell id="ZgUqLeBK0NsFuqqE2vrq-26" style="edgeStyle=orthogonalEdgeStyle;rounded=0;orthogonalLoop=1;jettySize=auto;html=1;exitX=0.5;exitY=1;exitDx=0;exitDy=0;entryX=0.425;entryY=-0.033;entryDx=0;entryDy=0;entryPerimeter=0;" edge="1" parent="1" source="ZgUqLeBK0NsFuqqE2vrq-2" target="ZgUqLeBK0NsFuqqE2vrq-5">
          <mxGeometry relative="1" as="geometry" />
        </mxCell>
        <mxCell id="ZgUqLeBK0NsFuqqE2vrq-27" style="edgeStyle=orthogonalEdgeStyle;rounded=0;orthogonalLoop=1;jettySize=auto;html=1;entryX=0.5;entryY=0;entryDx=0;entryDy=0;" edge="1" parent="1" source="ZgUqLeBK0NsFuqqE2vrq-2" target="ZgUqLeBK0NsFuqqE2vrq-3">
          <mxGeometry relative="1" as="geometry">
            <mxPoint x="580" y="-120" as="targetPoint" />
          </mxGeometry>
        </mxCell>
        <mxCell id="ZgUqLeBK0NsFuqqE2vrq-33" style="edgeStyle=orthogonalEdgeStyle;rounded=0;orthogonalLoop=1;jettySize=auto;html=1;entryX=0.5;entryY=0;entryDx=0;entryDy=0;" edge="1" parent="1" source="ZgUqLeBK0NsFuqqE2vrq-17" target="ZgUqLeBK0NsFuqqE2vrq-14">
          <mxGeometry relative="1" as="geometry" />
        </mxCell>
        <mxCell id="ZgUqLeBK0NsFuqqE2vrq-34" style="edgeStyle=orthogonalEdgeStyle;rounded=0;orthogonalLoop=1;jettySize=auto;html=1;entryX=0.5;entryY=1;entryDx=0;entryDy=0;" edge="1" parent="1" source="ZgUqLeBK0NsFuqqE2vrq-24" target="ZgUqLeBK0NsFuqqE2vrq-17">
          <mxGeometry relative="1" as="geometry" />
        </mxCell>
      </root>
    </mxGraphModel>
  </diagram>
</mxfile>
